<svg width="30" height="30" viewBox="0 0 30 30" fill="none" xmlns="http://www.w3.org/2000/svg">
<g clip-path="url(#clip0)">
<path d="M24.4873 19.7286C23.7555 19.7286 23.0602 20.0157 22.5357 20.535C22.0112 21.0603 21.7184 21.7445 21.7184 22.4775C21.7184 23.2106 22.0051 23.8948 22.5357 24.4201C23.0663 24.9394 23.7555 25.2265 24.4873 25.2265C25.9877 25.2265 27.2075 23.9925 27.2075 22.4775C27.2075 20.9626 25.9877 19.7286 24.4873 19.7286ZM24.4873 24.0047C23.6457 24.0047 22.9382 23.3083 22.9382 22.4775C22.9382 21.6467 23.6457 20.9503 24.4873 20.9503C25.3168 20.9503 25.9877 21.6345 25.9877 22.4775C25.9877 23.3205 25.3168 24.0047 24.4873 24.0047ZM25.1948 10.5716C25.085 10.4678 24.9387 10.4128 24.7862 10.4128H21.6574C21.322 10.4128 21.0475 10.6877 21.0475 11.0237V16.0328C21.0475 16.3688 21.322 16.6437 21.6574 16.6437H26.622C26.9574 16.6437 27.2319 16.3688 27.2319 16.0328V12.6791C27.2319 12.5081 27.1587 12.3431 27.0306 12.2271L25.1948 10.5716ZM26.0121 15.4219H22.2673V11.6284H24.5483L26.0121 12.9479V15.4219ZM9.59367 19.7286C8.86179 19.7286 8.16651 20.0157 7.642 20.535C7.11749 21.0603 6.82474 21.7445 6.82474 22.4775C6.82474 23.2106 7.11139 23.8948 7.642 24.4201C8.17261 24.9394 8.86179 25.2265 9.59367 25.2265C11.094 25.2265 12.3138 23.9925 12.3138 22.4775C12.3138 20.9626 11.094 19.7286 9.59367 19.7286ZM9.59367 24.0047C8.75201 24.0047 8.04453 23.3083 8.04453 22.4775C8.04453 21.6467 8.75201 20.9503 9.59367 20.9503C10.4231 20.9503 11.094 21.6345 11.094 22.4775C11.094 23.3205 10.4231 24.0047 9.59367 24.0047ZM5.52566 20.48H4.29977V18.8551C4.29977 18.5191 4.02531 18.2442 3.68987 18.2442C3.35443 18.2442 3.07998 18.5191 3.07998 18.8551V21.0908C3.07998 21.4268 3.35443 21.7017 3.68987 21.7017H5.52566C5.8611 21.7017 6.13556 21.4268 6.13556 21.0908C6.13556 20.7549 5.8611 20.48 5.52566 20.48ZM8.61783 17.1507C8.61783 16.8147 8.34338 16.5398 8.00794 16.5398H0.609896C0.274453 16.5398 0 16.8147 0 17.1507C0 17.4867 0.274453 17.7616 0.609896 17.7616H8.00794C8.34338 17.7616 8.61783 17.4928 8.61783 17.1507ZM1.84799 14.9455L9.24603 14.9882C9.58147 14.9882 9.85592 14.7194 9.86202 14.3835C9.86812 14.0414 9.59367 13.7665 9.25822 13.7665L1.86018 13.7237C1.85408 13.7237 1.85408 13.7237 1.85408 13.7237C1.51864 13.7237 1.24419 13.9925 1.24419 14.3285C1.23809 14.6706 1.51254 14.9455 1.84799 14.9455ZM3.09217 12.1721H10.4902C10.8257 12.1721 11.1001 11.8972 11.1001 11.5612C11.1001 11.2252 10.8257 10.9503 10.4902 10.9503H3.09217C2.75673 10.9503 2.48228 11.2252 2.48228 11.5612C2.48228 11.8972 2.75673 12.1721 3.09217 12.1721ZM29.7263 11.3474L25.3595 7.72493C25.2497 7.6333 25.1155 7.58443 24.9691 7.58443H19.8338V5.38529C19.8338 5.04931 19.5594 4.77441 19.2239 4.77441H3.68987C3.35443 4.77441 3.07998 5.04931 3.07998 5.38529V9.85688C3.07998 10.1929 3.35443 10.4678 3.68987 10.4678C4.02531 10.4678 4.29977 10.1929 4.29977 9.85688V5.99616H18.6201V20.48H13.619C13.2835 20.48 13.0091 20.7549 13.0091 21.0908C13.0091 21.4268 13.2835 21.7017 13.619 21.7017H21.0658C21.4013 21.7017 21.6757 21.4268 21.6757 21.0908C21.6757 20.7549 21.4013 20.48 21.0658 20.48H19.8399V8.80618H24.7557L28.7322 12.1049L28.6895 20.4678H28.0552C27.7198 20.4678 27.4453 20.7426 27.4453 21.0786C27.4453 21.4146 27.7198 21.6895 28.0552 21.6895H29.2933C29.6288 21.6895 29.9032 21.4207 29.9032 21.0847L29.952 11.8239C29.9459 11.6406 29.8666 11.4635 29.7263 11.3474Z" fill="#D31473"/>
</g>
<defs>
<clipPath id="clip0">
<rect width="29.952" height="30" fill="white"/>
</clipPath>
</defs>
</svg>
