<svg width="21" height="21" viewBox="0 0 21 21" fill="none" xmlns="http://www.w3.org/2000/svg">
<path fill-rule="evenodd" clip-rule="evenodd" d="M15.7067 15.1883H16.2273L19.7298 18.7016C20.1193 19.0923 20.1189 19.7246 19.7288 20.1147L19.2065 20.637C18.8164 21.0271 18.1841 21.0275 17.7934 20.638L14.2801 17.1356V16.6149C14.2801 16.291 14.1544 15.9797 13.9296 15.7465C12.4496 17.0187 10.5283 17.7846 8.43822 17.7846C3.77773 17.7846 0 14.0069 0 9.34643C0 4.68593 3.77773 0.908203 8.43822 0.908203C13.0987 0.908203 16.8764 4.68593 16.8764 9.34643C16.8764 11.4365 16.1105 13.3578 14.8383 14.8378C15.0715 15.0626 15.3828 15.1883 15.7067 15.1883ZM2.04366 9.42267C2.04366 13.0033 4.93405 15.8937 8.51468 15.8937C12.0953 15.8937 14.9857 13.0033 14.9857 9.42267C14.9857 5.84204 12.0953 2.95166 8.51468 2.95166C4.93405 2.95166 2.04366 5.84204 2.04366 9.42267Z" fill="#D31473"/>
</svg>
