<svg width="36" height="36" viewBox="0 0 36 36" fill="none" xmlns="http://www.w3.org/2000/svg">
<path d="M2.29993 33.8438L4.51902 27.187L4.73605 26.5359L4.38533 25.946C2.94795 23.5285 2.12069 20.7086 2.12069 17.6897C2.12069 8.74843 9.36912 1.5 18.3103 1.5C27.2516 1.5 34.5 8.74843 34.5 17.6897C34.5 26.6309 27.2516 33.8793 18.3103 33.8793C15.5887 33.8793 13.0285 33.2053 10.779 32.0206L10.2626 31.7487L9.69832 31.8972L2.29993 33.8438Z" fill="#2CB742" stroke="white" stroke-width="3"/>
<path d="M26.8503 22.2148C26.2288 21.0404 23.9371 19.6974 23.9371 19.6974C23.4186 19.4018 22.7929 19.3688 22.4973 19.8958C22.4973 19.8958 21.7526 20.7887 21.5633 20.9172C20.6982 21.5032 19.8968 21.4805 19.0879 20.6716L17.208 18.7917L15.328 16.9118C14.5191 16.1029 14.4964 15.3016 15.0825 14.4365C15.2109 14.2471 16.1039 13.5024 16.1039 13.5024C16.6309 13.2064 16.5978 12.5811 16.3022 12.0627C16.3022 12.0627 14.9592 9.77099 13.7848 9.14956C13.2852 8.88512 12.6718 8.97767 12.2723 9.37717L11.4421 10.2073C8.80851 12.8409 10.1052 15.8139 12.7388 18.4475L15.1458 20.8543L17.5527 23.2612C20.1863 25.8948 23.1594 27.1915 25.793 24.5579L26.6231 23.7278C27.0226 23.3273 27.1147 22.7139 26.8503 22.2148Z" fill="white"/>
</svg>
