<svg width="190" height="40" viewBox="0 0 190 40" fill="none" xmlns="http://www.w3.org/2000/svg">
<line x1="120" y1="20.5" x2="190" y2="20.5" stroke="#D31473"/>
<line x1="-4.37114e-08" y1="20.5" x2="70" y2="20.5" stroke="#D31473"/>
<path d="M109.635 26.3107C107.481 25.45 105.143 25.1699 102.85 25.4956V24.0888L102.016 24.3267C99.2692 25.1117 96.9565 27.0392 95.6554 29.5613V23.4523C95.6554 22.1134 96.2552 20.8659 97.3005 20.0295C98.075 19.4099 99.0475 19.0691 100.039 19.0691H100.234C101.449 19.0691 102.465 18.232 102.757 17.1068H102.798C104.081 17.1068 105.364 17.2646 106.609 17.576L108.083 17.9449V17.1068C108.083 15.2442 107.15 13.5672 105.649 12.5643C105.792 12.4519 105.932 12.3341 106.061 12.2047C106.943 11.3229 107.429 10.1502 107.429 8.9033C107.429 7.766 107.247 6.64211 106.887 5.56421L106.47 4.31448L105.428 5.00913C104.643 5.53163 103.752 5.84174 102.823 5.94171C102.833 5.8344 102.85 5.729 102.85 5.61978V4.86445C102.85 3.761 102.485 2.66745 101.824 1.78437C101.033 0.730098 99.7741 0.100604 98.457 0.100604C97.8067 0.100604 97.1558 0.254544 96.5752 0.544859L96.3095 0.67772L94.9544 0L94.0933 0.573603C92.8279 1.41676 91.2036 1.63394 89.7635 1.15327L88.1289 0.608415L86.4787 3.90823C86.2024 4.46075 86.0214 5.05863 85.9259 5.66896C85.4503 5.50672 84.9965 5.28954 84.5739 5.00753L83.5318 4.3132L83.1153 5.56293C82.756 6.64147 82.5737 7.76536 82.5737 8.9033C82.5737 10.1508 83.0598 11.3229 83.9413 12.2047C84.0709 12.3341 84.2102 12.4519 84.3536 12.5643C82.8525 13.5678 81.9196 15.2442 81.9196 17.1068V17.9449L83.3938 17.5767C84.6394 17.2646 85.922 17.1068 87.2047 17.1068H88.1532C88.2225 17.2502 88.2995 17.3908 88.3892 17.5249C89.0334 18.4917 90.1126 19.0691 91.2751 19.0691C92.5172 19.0691 93.6344 19.7593 94.1898 20.8707L94.3472 21.1859V25.6368C93.0458 23.1147 90.7328 21.1872 87.9862 20.4022L87.1523 20.1643V21.5711C84.8598 21.2453 82.5213 21.5254 80.368 22.3862L79.7612 22.6295L80.2256 23.7911C80.8743 25.4132 82.01 26.7808 83.4673 27.7156L82.1729 29.0101L83.6857 29.9181C85.4078 30.9513 87.3787 31.4967 89.3854 31.4967C90.5776 31.4967 91.7564 31.3058 92.888 30.9286L94.3472 30.4418V39.9999H95.6554V34.3664L97.114 34.8525C98.2462 35.2303 99.425 35.4213 100.617 35.4213C102.624 35.4213 104.595 34.8758 106.317 33.8426L107.83 32.9346L106.536 31.6402C107.993 30.7047 109.128 29.3378 109.777 27.715L110.241 26.5534L109.635 26.3107ZM106.687 16.2487C105.413 15.9497 104.106 15.7987 102.798 15.7987H102.757C102.599 15.188 102.231 14.6626 101.728 14.3101C102.406 13.9211 103.13 13.6234 103.892 13.4324C104.032 13.3976 104.165 13.3481 104.3 13.3008C105.541 13.8549 106.418 14.9498 106.687 16.2487ZM95.5142 9.99653C96.4912 9.513 97.5653 9.25781 98.6675 9.25781H99.2123C99.5093 9.25781 99.8057 9.2214 100.095 9.14922C100.343 9.08727 100.574 8.99369 100.797 8.88574C100.6 10.6232 100.056 12.3066 99.1947 13.8364H98.5857L95.5142 9.99653ZM92.385 8.17927V8.60373H92.2288C91.317 8.60373 90.4713 8.15117 89.9657 7.39233C89.8373 7.19942 89.7693 6.97522 89.7693 6.74303C89.7693 6.43036 89.8909 6.13653 90.112 5.91552L90.3691 5.65842L92.385 8.17927ZM91.0768 9.73752C91.4463 9.84802 91.8324 9.9119 92.2288 9.9119H92.385V11.1412C92.385 11.6225 92.4741 12.0894 92.6354 12.5282H91.0768V9.73752ZM92.3875 6.0883C92.3901 5.81077 92.4156 5.5361 92.4555 5.26463C93.8461 6.5645 95.5094 7.51561 97.3123 8.06174C96.3919 8.21089 95.5056 8.51238 94.6816 8.95504L92.3875 6.0883ZM95.1425 5.67024L95.4631 4.70891C96.6378 4.8587 97.6621 5.5773 98.2024 6.65808L98.3711 6.99534C97.2299 6.72738 96.1415 6.27929 95.1425 5.67024ZM93.6931 9.81449L96.9106 13.8364H96.3887C95.6685 13.8364 94.9914 13.556 94.4826 13.0469C93.9739 12.5381 93.6931 11.8604 93.6931 11.1412V9.81449ZM105.759 6.34189C105.999 7.17483 106.121 8.03428 106.121 8.9033C106.121 9.80139 105.771 10.6452 105.136 11.2798C104.705 11.71 104.166 12.0156 103.575 12.1635C102.648 12.3957 101.771 12.7659 100.954 13.251C101.728 11.5046 102.147 9.61839 102.186 7.69925C102.281 7.56447 102.369 7.42586 102.444 7.27927C103.614 7.2387 104.748 6.92603 105.759 6.34189ZM94.8196 1.66268L95.0486 1.5097L96.3095 2.14015L97.1597 1.71506C97.5602 1.51481 98.0089 1.40878 98.457 1.40878C99.3653 1.40878 100.233 1.84249 100.778 2.5694C101.27 3.22668 101.542 4.04237 101.542 4.86445V5.62042C101.542 6.27003 101.272 6.86535 100.83 7.293C100.538 7.29172 100.248 7.2716 99.9593 7.24669L99.3726 6.07329C98.5394 4.40646 96.8642 3.37104 95.0013 3.37104H94.5296L94.0247 4.88553C93.6127 4.55848 93.2214 4.20302 92.8567 3.81593C93.1071 3.21678 93.453 2.65755 93.8892 2.16123C94.2112 2.01847 94.5245 1.85878 94.8196 1.66268ZM87.6495 4.49429L88.792 2.20882L89.3499 2.3947C90.1918 2.67511 91.0835 2.75879 91.9567 2.67192C91.6229 3.29279 91.3796 3.95709 91.2358 4.64855L90.477 3.70031L89.1864 4.9906C88.7182 5.45913 88.4604 6.08096 88.4604 6.74303C88.4604 7.23359 88.6045 7.70979 88.8766 8.11795C89.1232 8.48747 89.4278 8.80206 89.7686 9.06555V10.8161L89.7543 10.8087C88.1491 10.0061 87.1523 8.39326 87.1523 6.59899C87.1523 5.87241 87.3244 5.14454 87.6495 4.49429ZM83.8818 8.9033C83.8818 8.03491 84.0035 7.17483 84.2437 6.34253C84.7576 6.63891 85.3031 6.86727 85.8741 7.0276C86.0233 9.14539 87.2484 11.0182 89.1695 11.9789L89.7686 12.2785V12.7435C89.4789 12.8566 89.2161 13.0163 88.9759 13.2072C88.1784 12.7429 87.3257 12.3877 86.427 12.1635C85.8364 12.0156 85.2967 11.71 84.8655 11.2798C84.2319 10.6446 83.8818 9.80076 83.8818 8.9033ZM87.2047 15.7987C85.8965 15.7987 84.5889 15.9497 83.3156 16.2487C83.5842 14.9491 84.4615 13.8543 85.7023 13.3002C85.8371 13.3471 85.9709 13.397 86.1105 13.4324C86.822 13.6103 87.503 13.8805 88.1427 14.2321C87.9348 14.6464 87.8064 15.1069 87.8064 15.6007C87.8064 15.6674 87.8169 15.7329 87.8207 15.7987H87.2047ZM91.2751 17.7609C90.5511 17.7609 89.8791 17.4013 89.4777 16.799C89.2401 16.4432 89.1145 16.0283 89.1145 15.6007C89.1145 14.6278 89.906 13.8364 90.8788 13.8364H93.4348C93.476 13.8818 93.514 13.9287 93.5577 13.9718C94.314 14.7281 95.3191 15.1446 96.3887 15.1446H100.234C100.955 15.1446 101.542 15.7313 101.542 16.4528C101.542 17.1742 100.955 17.7609 100.234 17.7609H100.039C98.7511 17.7609 97.4889 18.2039 96.4835 19.0084C96.0342 19.368 95.6548 19.7906 95.3395 20.2518C94.5551 18.7152 93.003 17.7609 91.2751 17.7609ZM92.4747 29.6872C89.7974 30.5805 86.7802 30.2483 84.3593 28.7961L84.283 28.7504L85.64 27.3924L84.8285 26.9862C83.307 26.2257 82.1166 24.9444 81.4683 23.3737C83.3245 22.7464 85.3098 22.5848 87.2484 22.9087L88.4604 23.1121V21.9445C90.7565 22.855 92.6232 24.6962 93.5459 27.0041L93.8771 27.8319L93.6781 27.677C90.8622 25.4864 87.503 24.0952 83.9623 23.6531L83.8001 24.9508C87.1066 25.364 90.2448 26.6639 92.8749 28.7099L93.6344 29.3004L92.4747 29.6872ZM105.174 30.9113L104.363 31.3176L105.72 32.6756L105.644 32.7212C103.223 34.1735 100.207 34.5056 97.5282 33.6123L96.3676 33.2255L97.1271 32.635C99.7572 30.5891 102.895 29.2892 106.202 28.8759L106.04 27.5783C102.5 28.0203 99.1405 29.4122 96.3239 31.6021L96.1252 31.7564L96.4567 30.9286C97.3797 28.6201 99.2465 26.7795 101.542 25.869V27.0366L102.754 26.8345C104.693 26.5116 106.679 26.6722 108.534 27.2995C107.886 28.8702 106.695 30.1509 105.174 30.9113Z" fill="#D31473"/>
</svg>
