<svg width="15" height="20" viewBox="0 0 15 20" fill="none" xmlns="http://www.w3.org/2000/svg">
<path fill-rule="evenodd" clip-rule="evenodd" d="M0 7.09307C0 3.16112 3.36544 0 7.5 0C11.6346 0 15 3.16112 15 7.09307C15 8.4358 14.5303 9.883 13.8766 11.2607C13.2185 12.6479 12.3476 14.0184 11.4875 15.222C10.626 16.4277 9.76594 17.4789 9.12186 18.2282C8.79949 18.6033 8.53039 18.9036 8.34116 19.111C8.24653 19.2147 8.17182 19.2953 8.12034 19.3503C8.0946 19.3778 8.07466 19.3989 8.06095 19.4134L8.04509 19.4302L8.0395 19.436C8.03936 19.4362 8.03886 19.4367 7.5 18.9617C6.96114 19.4367 6.96103 19.4366 6.9609 19.4364L6.95491 19.4302L6.93905 19.4134C6.92534 19.3989 6.9054 19.3778 6.87966 19.3503C6.82819 19.2953 6.75347 19.2147 6.65884 19.111C6.46961 18.9036 6.20051 18.6033 5.87814 18.2282C5.23406 17.4789 4.37403 16.4277 3.5125 15.222C2.65242 14.0184 1.78154 12.6479 1.12337 11.2607C0.46968 9.883 0 8.4358 0 7.09307ZM7.5 18.9617L6.9609 19.4364L7.5 20L8.03886 19.4367L7.5 18.9617ZM7.5 17.8978C7.64245 17.7381 7.80869 17.549 7.99327 17.3343C8.61827 16.6072 9.45033 15.5899 10.2809 14.4275C11.1129 13.2632 11.9342 11.9661 12.5451 10.6785C13.1605 9.38154 13.5368 8.14689 13.5368 7.09307C13.5368 3.95864 10.8494 1.40457 7.5 1.40457C4.15063 1.40457 1.46318 3.95864 1.46318 7.09307C1.46318 8.14689 1.83955 9.38154 2.45494 10.6785C3.06584 11.9661 3.88706 13.2632 4.71909 14.4275C5.54967 15.5899 6.38173 16.6072 7.00673 17.3343C7.19131 17.549 7.35755 17.7381 7.5 17.8978ZM7.38904 4.4478C5.86813 4.4478 4.63339 5.63308 4.63339 7.09308C4.63339 8.55307 5.86813 9.73835 7.38904 9.73835C8.90995 9.73835 10.1447 8.55307 10.1447 7.09308C10.1447 5.63308 8.90995 4.4478 7.38904 4.4478ZM3.17021 7.09308C3.17021 4.85736 5.06004 3.04323 7.38904 3.04323C9.71804 3.04323 11.6079 4.85736 11.6079 7.09308C11.6079 9.32879 9.71804 11.1429 7.38904 11.1429C5.06004 11.1429 3.17021 9.32879 3.17021 7.09308Z" fill="#D31473"/>
</svg>
