<svg width="30" height="30" viewBox="0 0 30 30" fill="none" xmlns="http://www.w3.org/2000/svg">
<path id="basket" fill-rule="evenodd" clip-rule="evenodd" d="M24.4409 14.955C23.9311 15.885 22.9415 16.5 21.8169 16.5H10.646L8.99666 19.5H26.99V22.5H8.99666C6.71751 22.5 5.27804 20.055 6.37263 18.045L8.39688 14.385L2.99889 3H0V0H4.90318L6.31266 3H28.5044C29.644 3 30.3637 4.23 29.8089 5.22L24.4409 14.955ZM25.9553 6H7.73706L11.2907 13.5H21.8168L25.9553 6ZM8.99647 24C7.34708 24 6.01257 25.35 6.01257 27C6.01257 28.65 7.34708 30 8.99647 30C10.6459 30 11.9954 28.65 11.9954 27C11.9954 25.35 10.6459 24 8.99647 24ZM21.0071 27C21.0071 25.35 22.3416 24 23.991 24C25.6404 24 26.9899 25.35 26.9899 27C26.9899 28.65 25.6404 30 23.991 30C22.3416 30 21.0071 28.65 21.0071 27Z" fill="#0F3978"/>
</svg>
