<svg width="32" height="32" viewBox="0 0 32 32" fill="none" xmlns="http://www.w3.org/2000/svg">
<rect x="0.5" y="0.5" width="31" height="31" rx="2.5" fill="white" stroke="#555555"/>
<path d="M15.9999 9.0251C17.2207 9.0251 18.2137 9.98373 18.2137 11.1622C18.2137 12.3398 17.2204 13.2984 15.9999 13.2984C14.7798 13.2984 13.7865 12.3398 13.7865 11.1622C13.7863 9.98348 14.7801 9.0251 15.9999 9.0251ZM15.9999 16.322C18.9487 16.322 21.3469 14.0077 21.3469 11.1622C21.3469 8.31528 18.949 6 15.9999 6C13.0512 6 10.6528 8.31552 10.6528 11.1622C10.6528 14.0077 13.0512 16.322 15.9999 16.322ZM18.163 20.5323C19.263 20.2905 20.3127 19.8709 21.2678 19.2913C21.6194 19.0777 21.8687 18.7381 21.9609 18.3471C22.0531 17.9561 21.9807 17.5457 21.7594 17.2063C21.65 17.038 21.5073 16.8923 21.3395 16.7773C21.1717 16.6624 20.9821 16.5805 20.7815 16.5363C20.5809 16.4922 20.3732 16.4866 20.1703 16.52C19.9675 16.5534 19.7735 16.6251 19.5993 16.7309C17.4088 18.0604 14.5894 18.0594 12.4006 16.7309C12.2265 16.625 12.0325 16.5534 11.8297 16.52C11.6269 16.4865 11.4192 16.4921 11.2186 16.5362C11.018 16.5804 10.8284 16.6623 10.6606 16.7773C10.4928 16.8922 10.3501 17.038 10.2408 17.2063C10.0195 17.5456 9.9469 17.9559 10.039 18.3469C10.131 18.7379 10.3802 19.0776 10.7317 19.2913C11.6867 19.8707 12.7362 20.2902 13.8359 20.5323L10.8468 23.4183C10.5531 23.702 10.3881 24.0867 10.3882 24.4878C10.3883 24.8888 10.5534 25.2735 10.8472 25.5571C11.1411 25.8406 11.5396 25.9999 11.9551 25.9998C12.3705 25.9997 12.769 25.8403 13.0627 25.5567L15.9993 22.7213L18.9377 25.5569C19.083 25.6974 19.2556 25.8088 19.4455 25.8848C19.6355 25.9609 19.8391 26 20.0447 26C20.2503 26 20.4539 25.9609 20.6438 25.8848C20.8338 25.8088 21.0063 25.6974 21.1516 25.5569C21.2973 25.4167 21.4129 25.2501 21.4918 25.0666C21.5707 24.8832 21.6113 24.6865 21.6113 24.4879C21.6113 24.2892 21.5707 24.0926 21.4918 23.9091C21.4129 23.7257 21.2973 23.559 21.1516 23.4188L18.163 20.5323Z" fill="#555555"/>
</svg>
