<svg width="32" height="32" viewBox="0 0 32 32" fill="none" xmlns="http://www.w3.org/2000/svg">
<rect x="0.5" y="0.5" width="31" height="31" rx="2.5" fill="white" stroke="#555555"/>
<path d="M24.1859 12.4944C24.1859 12.6522 24.1859 12.81 24.1859 12.9452C24.1859 17.6119 20.4634 23 13.678 23C11.5812 23 9.64921 22.4138 8 21.4219C8.28272 21.4444 8.58901 21.467 8.87173 21.467C10.5916 21.467 12.1937 20.9034 13.466 19.9565C11.8403 19.934 10.4738 18.8969 10.0262 17.4992C10.2618 17.5443 10.4738 17.5668 10.733 17.5668C11.0628 17.5668 11.3927 17.5217 11.699 17.4316C10.0026 17.1159 8.73037 15.6957 8.73037 13.9823C8.73037 13.9597 8.73037 13.9597 8.73037 13.9372C9.22513 14.2077 9.79058 14.3655 10.4031 14.3881C9.41361 13.7568 8.75393 12.6747 8.75393 11.4348C8.75393 10.781 8.94241 10.1723 9.24869 9.65378C11.0628 11.7955 13.7958 13.1932 16.8586 13.351C16.788 13.1031 16.7644 12.81 16.7644 12.5395C16.7644 10.5781 18.4136 9 20.4634 9C21.5236 9 22.4895 9.42834 23.1492 10.1047C23.9974 9.94686 24.7749 9.65378 25.5052 9.24799C25.2225 10.0821 24.6335 10.7585 23.8796 11.2093C24.6335 11.1192 25.3403 10.9388 26 10.6457C25.5288 11.3671 24.9162 11.9984 24.1859 12.4944Z" fill="#555555"/>
</svg>
