<svg width="32" height="32" viewBox="0 0 32 32" fill="none" xmlns="http://www.w3.org/2000/svg">
<rect x="0.5" y="0.5" width="31" height="31" rx="2.5" fill="white" stroke="#555555"/>
<path fill-rule="evenodd" clip-rule="evenodd" d="M25.5182 10.8125C25.6642 10.3442 25.5182 10 24.8234 10H22.526C21.9418 10 21.6726 10.2973 21.5266 10.6253C21.5266 10.6253 20.3582 13.3652 18.7031 15.145C18.1676 15.6602 17.9243 15.8239 17.6322 15.8239C17.4861 15.8239 17.2747 15.6602 17.2747 15.1919V10.8125C17.2747 10.2504 17.1052 10 16.6183 10H13.0081C12.6432 10 12.4236 10.2608 12.4236 10.5081C12.4236 11.041 13.251 11.1638 13.3363 12.6626V15.9179C13.3363 16.6316 13.2024 16.7611 12.9103 16.7611C12.1315 16.7611 10.2371 14.0086 9.11335 10.8594C8.89313 10.2473 8.67225 10 8.0851 10H5.78768C5.13128 10 5 10.2973 5 10.6253C5 11.2107 5.77899 14.1147 8.62663 17.9554C10.5253 20.578 13.1998 22 15.6337 22C17.0942 22 17.2747 21.6842 17.2747 21.1403V19.1579C17.2747 18.5263 17.4131 18.4003 17.8754 18.4003C18.2164 18.4003 18.8004 18.5642 20.1636 19.8288C21.7212 21.3274 21.9779 22 22.8542 22H25.1516C25.808 22 26.1362 21.6842 25.9468 21.061C25.7397 20.4398 24.996 19.5389 24.0091 18.4706C23.4736 17.8616 22.6704 17.2058 22.4272 16.8781C22.0863 16.4565 22.1837 16.2692 22.4272 15.8947C22.4272 15.8947 25.2261 12.1008 25.5182 10.8127V10.8125Z" fill="#555555"/>
</svg>
